<svg xmlns="http://www.w3.org/2000/svg" viewBox="0 0 659 187" width="659" height="187">
	<style>
		tspan { white-space:pre }
		.shp0 { fill: #000000 } 
	</style>
	<g id="Layer">
		<path id="Layer" class="shp0" d="M218.69,141.22l18.6,-21.33l-1.66,-1.45l-18.6,21.33z" />
		<g id="Layer">
			<path id="Layer" class="shp0" d="M186.4,186.2h-186.4v-186h186.4zM8,178.2h170.3v-169.9h-170.3z" />
		</g>
		<g id="Layer">
			<g id="Layer">
				<path id="Layer" class="shp0" d="M227.8,88.9h-9.9v-33.7h9.3c4.6,0 7.9,0.6 10,1.9c2.1,1.2 3.7,3.1 4.9,5.6c1.2,2.6 1.8,5.6 1.8,9.2c0,3.6 -0.5,6.5 -1.6,8.9c-1,2.4 -2.6,4.4 -4.8,6c-2.3,1.4 -5.5,2.1 -9.7,2.1zM222.2,58.6v26.7h5.2c3.1,0 5.4,-0.5 6.9,-1.4c1.5,-0.8 2.7,-2.2 3.6,-4.2c0.9,-2 1.3,-4.5 1.3,-7.4c0,-2.8 -0.4,-5.3 -1.2,-7.5c-0.7,-2.1 -1.9,-3.7 -3.4,-4.7c-1.6,-1 -4.1,-1.5 -7.4,-1.5z" />
			</g>
			<g id="Layer">
				<path id="Layer" class="shp0" d="M278.1,88.9h-20.2v-33.7h19v3.7h-14.7v10.6h12.8v3.3h-12.8v12.3h15.8v3.8z" />
			</g>
			<g id="Layer">
				<path id="Layer" class="shp0" d="M291.5,81.5v-0.2h4.4v0.2c0,1.9 0.6,3.2 1.9,3.9c1.3,0.7 3,1 5.2,1.1c2,0 3.6,-0.6 4.8,-1.7c1.3,-1.1 2,-2.5 2,-4.4c0,-1.5 -0.6,-2.7 -1.7,-3.6c-1.1,-0.9 -2.8,-1.9 -5.1,-2.8l-1.7,-0.7c-2.4,-0.9 -4.2,-1.9 -5.4,-2.9c-1.2,-0.9 -2.1,-2 -2.6,-3.2c-0.6,-1.2 -0.8,-2.5 -0.8,-3.9c0,-2.6 0.9,-4.7 2.6,-6.4c1.8,-1.8 4.7,-2.6 8.5,-2.6c3.6,0 6,0.7 7.4,2c1.4,1.3 2.1,2.8 2.1,4.5v0.2h-4.4v-0.2c0,-0.6 -0.2,-1.1 -0.7,-1.6c-0.4,-0.5 -1.1,-0.9 -1.9,-1.1c-0.7,-0.2 -1.7,-0.3 -3,-0.4c-2.1,0 -3.7,0.5 -4.8,1.6c-1,1.1 -1.5,2.3 -1.5,3.7c0,0.9 0.2,1.8 0.7,2.6c0.5,0.8 1.2,1.5 2,2c0.8,0.5 2.2,1.2 4.4,2.2l2.1,0.9c3.4,1.4 5.6,2.9 6.6,4.5c1.1,1.5 1.7,3.2 1.7,5.1c0,1.8 -0.5,3.4 -1.4,4.9c-0.9,1.6 -2.1,2.8 -3.7,3.6c-1.5,0.7 -3.7,1.1 -6.4,1.2c-2.5,0 -4.6,-0.3 -6.3,-0.9c-1.7,-0.6 -3,-1.5 -3.8,-2.9c-0.8,-1.5 -1.2,-3 -1.2,-4.7z" />
			</g>
			<g id="Layer">
				<path id="Layer" class="shp0" d="M332.5,55.2v33.7h-4.4v-33.7z" />
			</g>
			<g id="Layer">
				<path id="Layer" class="shp0" d="M371.8,72.2v15.2c-3.5,1.6 -6.9,2.5 -10.2,2.6c-3.4,0 -6.1,-0.7 -8.2,-2c-0.6,-0.4 -1.2,-0.9 -1.9,-1.5c-0.7,-0.7 -1.3,-1.3 -1.7,-2c-0.5,-0.6 -0.9,-1.4 -1.4,-2.3c-1.2,-2.6 -1.9,-5.8 -1.9,-9.7c0,-4.3 0.6,-7.8 1.8,-10.4c1.1,-2.4 2.8,-4.4 5,-5.8c2.1,-1.4 4.7,-2.1 7.7,-2.1c2,0 3.8,0.3 5.5,0.9c1.7,0.6 3,1.6 4,2.9c0.9,1.2 1.4,2.5 1.5,3.8v0.2h-4.1v-0.2c0,-0.8 -0.3,-1.5 -0.9,-2.2c-0.6,-0.7 -1.4,-1.2 -2.3,-1.5c-1.1,-0.4 -2.2,-0.6 -3.3,-0.6c-3.3,0 -5.8,1.3 -7.5,3.9c-1.7,2.5 -2.6,6 -2.6,10.6c0,4.4 0.9,8 2.7,10.7c1.8,2.6 4.3,3.9 7.5,3.9c1.9,0 4.1,-0.4 6.5,-1.3v-9.6h-7.5v-3.4h11.3z" />
			</g>
			<g id="Layer">
				<path id="Layer" class="shp0" d="M390.5,64.9v24.1h-4v-33.7h4.3l15.4,24l1.4,2.6l-0.1,-2.6v-24h4v33.7h-4.3l-15.5,-24.1l-1.4,-2.7z" />
			</g>
			<g id="Layer">
				<path id="Layer" class="shp0" d="M452.7,87.2l-0.8,-1c-1.4,1.3 -2.9,2.3 -4.4,2.9c-1.4,0.6 -3.1,0.9 -4.8,0.9c-2.2,0 -4.1,-0.4 -5.8,-1.3c-1.6,-0.9 -2.8,-2.2 -3.8,-3.8c-0.9,-1.5 -1.4,-3.2 -1.4,-5.2c0,-2.3 0.8,-4.5 2.3,-6.5c1.5,-2 3.4,-3.6 5.8,-4.9c-0.1,-0.1 -0.2,-0.3 -0.4,-0.6c-1,-1.6 -1.6,-2.7 -1.8,-3.3c-0.1,-0.3 -0.3,-0.9 -0.6,-1.7c-0.1,-0.5 -0.2,-1 -0.2,-1.5c0,-1.1 0.3,-2.3 1,-3.4c0.7,-1.2 1.7,-2 2.8,-2.6c1.2,-0.6 2.6,-0.9 4.1,-0.9c2.2,0 3.9,0.6 5.2,1.8c1.3,1.1 1.9,2.4 1.9,4c0,1.7 -0.6,3.5 -1.9,5.2c-1.4,1.7 -2.9,3.1 -4.8,4.2c2.6,4.3 5,7.9 7.4,11.1c0.7,-1.1 1.3,-2.3 1.7,-3.6c0.4,-1.3 0.5,-3.2 0.5,-5.7v-1.2h4.1v0.5c0,5 -1.4,9.3 -4.1,12.8c1.2,1.5 3,3.4 5.4,5.7h-5.9c-0.4,-0.7 -1,-1.3 -1.5,-1.9zM445.9,78.2c-1.5,-2.1 -3,-4.5 -4.4,-7.1c-1.8,0.9 -3.2,2.2 -4.1,3.7c-1,1.5 -1.5,3 -1.5,4.7c0,1.3 0.3,2.5 1,3.6c0.6,1.1 1.5,1.9 2.7,2.6c1.2,0.6 2.3,0.9 3.5,0.9c0.7,0 1.7,-0.2 2.8,-0.5c1.1,-0.4 2.4,-1.2 3.9,-2.6c-1,-1.2 -2.3,-2.9 -3.9,-5.3zM443,65.7l0.4,0.6c1.5,-0.8 2.6,-1.8 3.4,-3c0.8,-1.1 1.1,-2.1 1.1,-2.9c0,-0.5 -0.1,-1 -0.4,-1.5c-0.2,-0.5 -0.7,-0.9 -1.3,-1.1c-0.6,-0.3 -1.1,-0.4 -1.8,-0.4c-1.1,0 -2,0.4 -2.6,1.1c-0.6,0.7 -0.8,1.5 -0.8,2.3c0,0.4 0.1,0.8 0.2,1.3c0.2,0.6 0.3,1 0.5,1.4c0.3,0.5 0.7,1.2 1.3,2.2z" />
			</g>
			<g id="Layer">
				<path id="Layer" class="shp0" d="M492.2,88.9h-9.9v-33.7h9.3c4.6,0 7.9,0.6 10,1.9c2.1,1.2 3.7,3.1 4.9,5.6c1.2,2.6 1.8,5.6 1.8,9.2c0,3.6 -0.5,6.5 -1.6,8.9c-1,2.4 -2.6,4.4 -4.8,6c-2.3,1.4 -5.5,2.1 -9.7,2.1zM486.7,58.6v26.7h5.2c3.1,0 5.4,-0.5 6.9,-1.4c1.5,-0.8 2.7,-2.2 3.6,-4.2c0.9,-2 1.3,-4.5 1.3,-7.4c0,-2.8 -0.4,-5.3 -1.2,-7.5c-0.7,-2.1 -1.9,-3.7 -3.4,-4.7c-1.6,-1 -4.1,-1.5 -7.4,-1.5z" />
			</g>
			<g id="Layer">
				<path id="Layer" class="shp0" d="M542.5,88.9h-20.2v-33.7h19v3.7h-14.7v10.6h12.8v3.3h-12.8v12.3h15.8v3.8z" />
			</g>
			<g id="Layer">
				<path id="Layer" class="shp0" d="M576.8,81.9v-0.2h4.1v0.2c0,1.4 -0.5,2.7 -1.4,4.1c-0.9,1.3 -2.1,2.3 -3.7,3c-1.6,0.6 -3.4,1 -5.5,1c-4.3,0 -7.8,-1.5 -10.6,-4.5c-2.7,-3 -4.1,-7.4 -4.1,-13.4c0,-5.8 1.4,-10.3 4.1,-13.4c2.7,-3 6.2,-4.5 10.6,-4.5c2,0 3.9,0.3 5.5,1c1.6,0.6 2.8,1.6 3.7,3.1c0.9,1.4 1.3,2.7 1.4,4v0.2h-4.1v-0.2c0,-0.9 -0.2,-1.6 -0.7,-2.4c-0.5,-0.8 -1.2,-1.3 -2.2,-1.7c-1,-0.4 -2.2,-0.6 -3.5,-0.6c-3.4,0 -6,1.4 -7.7,4.1c-1.7,2.7 -2.5,6.2 -2.6,10.4c0,4.2 0.9,7.7 2.6,10.5c1.7,2.7 4.2,4 7.7,4c2.4,0 4,-0.5 5,-1.4c0.9,-1 1.4,-2.1 1.4,-3.3z" />
			</g>
			<g id="Layer">
				<path id="Layer" class="shp0" d="M618,85.3c-2.6,3.1 -6,4.6 -10.3,4.7c-4.2,0 -7.7,-1.6 -10.4,-4.7c-2.6,-3.1 -4,-7.5 -4,-13.2c0,-5.6 1.3,-10 4,-13.2c2.7,-3.1 6.1,-4.6 10.4,-4.6c4.2,0 7.7,1.5 10.3,4.6c2.7,3.1 4,7.5 4,13.2c0,2.9 -0.3,5.5 -1,7.6c-0.6,2.2 -1.6,4 -3,5.6zM600.5,82.6c1.7,2.6 4.1,3.9 7.2,3.9c3.1,0 5.5,-1.3 7.2,-3.9c1.7,-2.6 2.5,-6.2 2.6,-10.6c0,-4.4 -0.9,-7.9 -2.6,-10.5c-1.7,-2.7 -4.1,-4 -7.2,-4c-3.1,0 -5.5,1.3 -7.2,4c-1.7,2.6 -2.6,6.1 -2.6,10.5c0,4.3 0.9,7.9 2.6,10.6z" />
			</g>
			<g id="Layer">
				<path id="Layer" class="shp0" d="M640.5,74.4v14.5h-4.4v-33.7h10.4c2.6,0 4.5,0.4 5.8,1.1c1.3,0.7 2.3,1.8 3.1,3.2c0.7,1.5 1.1,3 1.1,4.5c0,1.4 -0.3,2.7 -0.8,3.8c-0.5,1.2 -1.2,2.3 -2.1,3.3c-1,1 -2.4,1.9 -4.3,2.6c0.7,0.4 1.3,0.8 1.6,1.1c0.2,0.2 0.7,0.8 1.3,1.8c0.6,0.9 1,1.6 1.4,2.3l5.4,10h-5l-4.7,-8.9c-1.2,-2.2 -2.6,-4.1 -4.4,-5.6zM640.5,58.6v12.5h4.3c1.8,0 3.2,-0.3 4.1,-0.8c0.9,-0.5 1.6,-1.4 2.2,-2.5c0.5,-1 0.8,-2.2 0.8,-3.4c0,-1 -0.2,-2 -0.7,-2.8c-0.4,-0.8 -1.1,-1.5 -1.9,-2.2c-0.8,-0.6 -2.2,-0.8 -4.3,-0.8z" />
			</g>
		</g>
		<g id="Layer">
			<g id="Layer">
				<path id="Layer" class="shp0" d="M56.8,84h-16.3v-55.6h15.3c7.5,0 13,1 16.4,3.1c3.4,1.9 6.1,5 8.1,9.3c2,4.2 3,9.3 3,15.2c0,5.9 -0.9,10.7 -2.7,14.6c-1.6,4 -4.3,7.3 -7.9,9.9c-3.8,2.3 -9,3.5 -15.9,3.5zM47.6,34v43.9h8.6c5.1,0 8.9,-0.7 11.4,-2.2c2.5,-1.4 4.5,-3.7 5.9,-7c1.4,-3.3 2.1,-7.3 2.2,-12.1c0,-4.5 -0.7,-8.7 -2,-12.3c-1.2,-3.4 -3.1,-6 -5.7,-7.8c-2.7,-1.6 -6.7,-2.5 -12.1,-2.5z" />
			</g>
			<g id="Layer">
				<path id="Layer" class="shp0" d="M143.3,84h-33.2v-55.6h33.2v6.2h-26v17.5h26v5.5h-26v20.3h26z" />
			</g>
			<g id="Layer">
				<path id="Layer" class="shp0" d="M113.8,154.5c-3.6,-2.6 -6.3,-5.9 -7.9,-9.9c-1.8,-3.9 -2.7,-8.7 -2.7,-14.6c0,-5.9 1,-11 3,-15.2c1.9,-4.3 4.6,-7.4 8.1,-9.3c3.4,-2.1 8.9,-3.1 16.4,-3.1h15.3v55.6h-16.3c-7,0 -12.2,-1.2 -15.9,-3.5zM130.4,108c-5.4,0 -9.4,0.8 -12.1,2.5c-2.6,1.7 -4.4,4.3 -5.7,7.8c-1.3,3.7 -2,7.8 -2,12.3c0,4.8 0.8,8.8 2.2,12.1c1.5,3.3 3.4,5.6 5.9,7c2.5,1.5 6.3,2.2 11.4,2.2h8.6v-43.9z" />
			</g>
			<g id="Layer">
				<path id="Layer" class="shp0" d="M43.4,151.9h26v-20.3h-26v-5.5h26v-17.5h-26v-6.2h33.2v55.6h-33.2z" />
			</g>
		</g>
		<g id="Layer">
			<g id="Layer">
				<path id="Layer" class="shp0" d="M259,119.1v21.3h-2.8v-21.3z" />
			</g>
			<g id="Layer">
				<path id="Layer" class="shp0" d="M272.8,125.2v15.2h-2.6v-21.3h2.7l9.7,15.2l0.9,1.7l-0.1,-1.7v-15.2h2.5v21.3h-2.7l-9.8,-15.2l-0.9,-1.7z" />
			</g>
			<g id="Layer">
				<path id="Layer" class="shp0" d="M303.6,140.4h-2.8v-19.2h-7.3v-2.1h17.2v2.1h-7.1z" />
			</g>
			<g id="Layer">
				<path id="Layer" class="shp0" d="M330.9,140.4h-12.8v-21.3h12v2.4h-9.3v6.7h8.1v2.1h-8.1v7.8h10v2.3z" />
			</g>
			<g id="Layer">
				<path id="Layer" class="shp0" d="M342.1,140.5h-2.8v-21.3h6.6c1.7,0 2.9,0.2 3.6,0.7c0.8,0.5 1.5,1.1 1.9,2c0.5,1 0.7,1.9 0.7,2.9c0,0.9 -0.2,1.7 -0.5,2.4c-0.3,0.7 -0.7,1.4 -1.3,2.1c-0.6,0.6 -1.5,1.2 -2.7,1.6c0.5,0.3 0.8,0.5 1,0.7c0.1,0.1 0.4,0.5 0.8,1.1c0.4,0.6 0.7,1 0.9,1.4l3.4,6.3h-3.2l-2.9,-5.6c-0.8,-1.4 -1.7,-2.6 -2.8,-3.6h-2.7zM342.1,129.1h2.7c1.1,0 2,-0.2 2.6,-0.5c0.6,-0.3 1,-0.9 1.4,-1.6c0.3,-0.7 0.5,-1.4 0.5,-2.2c0,-0.6 -0.1,-1.2 -0.4,-1.8c-0.3,-0.5 -0.7,-1 -1.2,-1.4c-0.5,-0.4 -1.4,-0.5 -2.7,-0.5h-2.9z" />
			</g>
			<g id="Layer">
				<path id="Layer" class="shp0" d="M364.1,119.1v21.3h-2.8v-21.3z" />
			</g>
			<g id="Layer">
				<path id="Layer" class="shp0" d="M387.9,138.1c-1.6,1.9 -3.8,2.9 -6.5,2.9c-2.7,0 -4.9,-1 -6.5,-2.9c-1.7,-2 -2.5,-4.8 -2.5,-8.4c0,-3.6 0.8,-6.3 2.5,-8.3c1.7,-1.9 3.9,-2.9 6.5,-2.9c2.7,0 4.8,1 6.5,2.9c1.7,2 2.5,4.7 2.5,8.3c0,1.8 -0.2,3.5 -0.6,4.8c-0.4,1.5 -1,2.6 -1.9,3.6zM376.9,136.4c1.1,1.6 2.6,2.4 4.5,2.5c1.9,0 3.4,-0.8 4.5,-2.5c1.1,-1.7 1.6,-3.9 1.6,-6.7c0,-2.8 -0.5,-5 -1.6,-6.6c-1.1,-1.7 -2.6,-2.5 -4.5,-2.5c-2,0 -3.5,0.8 -4.5,2.5c-1.1,1.6 -1.6,3.8 -1.7,6.6c0,2.8 0.6,5 1.7,6.7z" />
			</g>
			<g id="Layer">
				<path id="Layer" class="shp0" d="M401.5,140.5h-2.8v-21.3h6.6c1.7,0 2.9,0.2 3.6,0.7c0.8,0.5 1.5,1.1 2,2c0.5,1 0.7,1.9 0.7,2.9c0,0.9 -0.2,1.7 -0.5,2.4c-0.3,0.7 -0.7,1.4 -1.3,2.1c-0.6,0.6 -1.5,1.2 -2.7,1.6c0.5,0.3 0.8,0.5 1,0.7c0.1,0.1 0.4,0.5 0.8,1.1c0.4,0.6 0.7,1 0.9,1.4l3.4,6.3h-3.2l-3,-5.6c-0.7,-1.4 -1.7,-2.6 -2.8,-3.6h-2.7zM401.5,129.1h2.7c1.1,0 2,-0.2 2.6,-0.5c0.6,-0.3 1,-0.9 1.4,-1.6c0.3,-0.7 0.5,-1.4 0.5,-2.2c0,-0.6 -0.1,-1.2 -0.4,-1.8c-0.3,-0.5 -0.7,-1 -1.2,-1.4c-0.5,-0.4 -1.4,-0.5 -2.7,-0.5h-2.9z" />
			</g>
			<g id="Layer">
				<path id="Layer" class="shp0" d="M440.7,135.7v-0.1h2.8v0.1c0,1.2 0.4,2 1.2,2.5c0.8,0.4 1.9,0.7 3.3,0.7c1.2,0 2.3,-0.4 3,-1.1c0.8,-0.7 1.3,-1.6 1.3,-2.8c0,-1 -0.4,-1.7 -1.1,-2.3c-0.7,-0.6 -1.8,-1.2 -3.2,-1.8l-1.1,-0.5c-1.5,-0.6 -2.6,-1.2 -3.4,-1.8c-0.7,-0.6 -1.3,-1.3 -1.7,-2c-0.3,-0.8 -0.5,-1.6 -0.5,-2.5c0,-1.6 0.6,-3 1.7,-4.1c1.2,-1.1 3,-1.7 5.4,-1.7c2.2,0 3.8,0.4 4.7,1.3c0.9,0.8 1.3,1.7 1.3,2.9v0.1h-2.8v-0.1c0,-0.4 -0.1,-0.7 -0.4,-1c-0.3,-0.3 -0.7,-0.6 -1.2,-0.7c-0.4,-0.1 -1.1,-0.2 -1.9,-0.3c-1.3,0 -2.4,0.3 -3,1c-0.6,0.7 -0.9,1.5 -0.9,2.3c0,0.6 0.2,1.1 0.4,1.7c0.3,0.5 0.7,0.9 1.3,1.3c0.5,0.3 1.4,0.8 2.8,1.4l1.3,0.6c2.1,0.9 3.5,1.9 4.2,2.9c0.7,0.9 1.1,2 1.1,3.2c0,1.1 -0.3,2.2 -0.9,3.1c-0.6,1 -1.4,1.8 -2.3,2.3c-1,0.5 -2.3,0.7 -4,0.8c-1.6,0 -2.9,-0.2 -4,-0.6c-1.1,-0.4 -1.9,-1 -2.4,-1.9c-0.7,-0.9 -1,-1.8 -1,-2.9z" />
			</g>
			<g id="Layer">
				<path id="Layer" class="shp0" d="M471.7,140.4h-2.7v-19.2h-7.3v-2.1h17.2v2.1h-7.1v19.2z" />
			</g>
			<g id="Layer">
				<path id="Layer" class="shp0" d="M486,133.2v-14.1h2.8v13.7c0,2 0.2,3.3 0.6,4.1c0.4,0.7 1,1.2 1.8,1.5c0.9,0.4 1.8,0.5 2.8,0.5c0.9,0 1.8,-0.2 2.6,-0.5c0.8,-0.4 1.3,-0.9 1.7,-1.7c0.4,-0.8 0.6,-2.5 0.6,-4.9v-12.8h2.6v13.4c0,2.5 -0.3,4.3 -0.9,5.3c-0.6,1 -1.4,1.8 -2.5,2.4c-1,0.5 -2.4,0.8 -4.1,0.9c-1.5,0 -2.9,-0.2 -4.2,-0.7c-1.3,-0.5 -2.2,-1.2 -2.8,-2.2c-0.7,-0.9 -1,-2.6 -1,-4.9z" />
			</g>
			<g id="Layer">
				<path id="Layer" class="shp0" d="M516.3,140.4h-6.3v-21.3h5.9c2.9,0 5,0.4 6.3,1.2c1.3,0.7 2.3,1.9 3.1,3.6c0.8,1.6 1.1,3.6 1.1,5.8c0,2.2 -0.3,4.1 -1,5.6c-0.6,1.5 -1.6,2.8 -3,3.8c-1.4,0.9 -3.5,1.3 -6.1,1.3zM512.8,121.2v16.8h3.3c2,0 3.4,-0.3 4.4,-0.9c1,-0.5 1.7,-1.4 2.3,-2.7c0.5,-1.3 0.8,-2.8 0.8,-4.6c0,-1.7 -0.3,-3.3 -0.8,-4.7c-0.5,-1.3 -1.2,-2.3 -2.2,-3c-1,-0.6 -2.6,-0.9 -4.6,-0.9z" />
			</g>
			<g id="Layer">
				<path id="Layer" class="shp0" d="M537.5,119.1v21.3h-2.8v-21.3z" />
			</g>
			<g id="Layer">
				<path id="Layer" class="shp0" d="M561.3,138.1c-1.6,1.9 -3.8,2.9 -6.5,2.9c-2.7,0 -4.9,-1 -6.5,-2.9c-1.7,-2 -2.5,-4.8 -2.5,-8.4c0,-3.6 0.8,-6.3 2.5,-8.3c1.7,-1.9 3.9,-2.9 6.5,-2.9c2.7,0 4.8,1 6.5,2.9c1.7,2 2.5,4.7 2.5,8.3c0,1.8 -0.2,3.5 -0.6,4.8c-0.4,1.5 -1,2.6 -1.9,3.6zM550.3,136.4c1.1,1.6 2.6,2.4 4.5,2.5c1.9,0 3.4,-0.8 4.5,-2.5c1.1,-1.7 1.6,-3.9 1.6,-6.7c0,-2.8 -0.5,-5 -1.6,-6.6c-1.1,-1.7 -2.6,-2.5 -4.5,-2.5c-2,0 -3.5,0.8 -4.5,2.5c-1.1,1.6 -1.6,3.8 -1.7,6.6c0,2.8 0.6,5 1.7,6.7z" />
			</g>
		</g>
	</g>
</svg>